<svg xmlns="http://www.w3.org/2000/svg" width="74.375" height="74.375" viewBox="0 0 74.375 74.375">
  <path id="Path_253" data-name="Path 253" d="M31.875-69.062a5.105,5.105,0,0,1,3.735,1.577,5.105,5.105,0,0,1,1.577,3.735V0A5.105,5.105,0,0,1,35.61,3.735a5.105,5.105,0,0,1-3.735,1.577h-63.75A5.105,5.105,0,0,1-35.61,3.735,5.105,5.105,0,0,1-37.187,0V-63.75a5.105,5.105,0,0,1,1.577-3.735,5.105,5.105,0,0,1,3.735-1.577Zm-46.65,63.75h.166V-40.84H-25.732V-5.312Zm-5.479-40.342a6.23,6.23,0,0,0,4.565-1.909,6.136,6.136,0,0,0,1.909-4.482,6.136,6.136,0,0,0-1.909-4.482,6.23,6.23,0,0,0-4.565-1.909,5.961,5.961,0,0,0-4.482,1.909,6.275,6.275,0,0,0-1.826,4.482,6.275,6.275,0,0,0,1.826,4.482A5.961,5.961,0,0,0-20.254-45.654ZM26.562-5.312V-24.736q0-8.3-2.324-12.119Q21.084-41.67,13.447-41.67a12.79,12.79,0,0,0-6.807,1.826,9.287,9.287,0,0,0-3.652,3.818H2.822V-40.84H-7.8V-5.312H3.154v-17.6a13.622,13.622,0,0,1,1.162-6.309,5.855,5.855,0,0,1,5.479-2.822q3.818,0,4.98,3.154a17.589,17.589,0,0,1,.83,6.309V-5.312Z" transform="translate(37.188 69.062)" fill="#ed1067"/>
</svg>
