<svg xmlns="http://www.w3.org/2000/svg" width="1920" height="1851" viewBox="0 0 1920 1851">
  <g id="mystack" transform="translate(0 -6172)">
    <rect id="Rectangle_25" data-name="Rectangle 25" width="1920" height="1851" transform="translate(0 6172)" fill="#134172"/>
    <text id="I_ve_been_doing_this_for_a_while_so_the_list_of_languages_tools_libraries_and_frameworks_I_ve_used_is_too_long_to_bore_anyone_with._This_is_a_selection_of_some_of_my_current_toolbelt._" data-name="I&apos;ve been doing this for a while, so the list of languages, tools, libraries and frameworks I&apos;ve used is too long to bore anyone with. This is a selection of some of my current toolbelt.
" transform="translate(130 6538)" fill="#fff" font-size="60" font-family="OpenSans, Open Sans"><tspan x="0" y="64">I&apos;ve been doing this for a while, so the list of languages, </tspan><tspan x="0" y="146">tools, libraries and frameworks I&apos;ve used is too long to bore </tspan><tspan x="0" y="228">anyone with. This is a selection of some of my current </tspan><tspan x="0" y="310">toolbelt.</tspan><tspan x="0" y="392"></tspan></text>
    <text id="My_Stack" data-name="My Stack" transform="translate(130 6456)" fill="#fff" font-size="88" font-family="OpenSans, Open Sans"><tspan x="0" y="0">My Stack</tspan></text>
    <g id="TechStacks" transform="translate(66.433 5701.328)">
      <g id="Adobe_XD" data-name="Adobe XD" transform="translate(1117.445 1758.891)">
        <g id="AdobeXD" transform="translate(0 0)">
          <path id="Path_311" data-name="Path 311" d="M197.865,228.869H47.123A37.187,37.187,0,0,1,10,191.743V47.126A37.187,37.187,0,0,1,47.123,10h150.64a37.122,37.122,0,0,1,37.123,37.126V191.641A37.057,37.057,0,0,1,197.865,228.869Z" transform="translate(-10 -10)" fill="#fff"/>
          <path id="Path_312" data-name="Path 312" d="M93.891,108.441l27.436,52.716c.49.784.2,1.568-.588,1.568H103.69a1.923,1.923,0,0,1-2.058-1.274c-6.271-12.934-12.64-25.868-19.205-39.782h-.2c-5.879,13.13-12.346,26.946-18.617,39.88a1.882,1.882,0,0,1-1.764,1.078H45.682c-.98,0-1.078-.784-.588-1.372l26.848-51.149L45.976,58.37A.792.792,0,0,1,46.564,57H63.417a1.543,1.543,0,0,1,1.764,1.078C71.354,71.01,77.625,84.336,83.5,97.368h.2C89.384,84.434,95.655,71.01,101.73,58.174c.49-.784.784-1.274,1.764-1.274h15.776c.784,0,1.078.588.588,1.372Zm32.237,15.972c0-22.831,15.188-40.664,39.292-40.664a43.444,43.444,0,0,1,5.1.2V57.978a.982.982,0,0,1,.98-.98h15.482c.784,0,.98.294.98.784v89.951a69.791,69.791,0,0,0,.49,9.6c0,.588-.2.784-.784,1.078a58.367,58.367,0,0,1-25.084,5.683C141.316,164.194,126.128,151.064,126.128,124.412Zm44.388-25.084a14.819,14.819,0,0,0-5.683-.98c-12.346,0-20.969,9.5-20.969,25.28,0,18.029,8.819,25.28,19.891,25.28a18.486,18.486,0,0,0,6.761-1.078Z" transform="translate(-6.185 -6.753)" fill="#134172"/>
        </g>
      </g>
      <g id="Angular" transform="translate(798.718 1350.457)">
        <g id="Angular-2" data-name="Angular" transform="translate(0 0)">
          <path id="Path_313" data-name="Path 313" d="M142.906,30h0L31.9,69.585,48.831,216.361l94.075,52.1h0l94.075-52.1L253.912,69.585Z" transform="translate(-31.9 -30)" fill="#fff"/>
          <path id="Path_315" data-name="Path 315" d="M137.8,52.1l-71,149.61H93.274l14.274-33.476h60.267l14.274,33.476h26.474L137.8,52.1Zm20.74,95.5H117.063l20.74-46.889Z" transform="translate(-26.789 -26.764)" fill="#134172"/>
        </g>
      </g>
      <g id="C_" data-name="C#" transform="translate(1121.523 1350.457)">
        <g id="CSharp" transform="translate(0 0)">
          <g id="Group-4" transform="translate(0 0)">
            <path id="Fill-1" d="M212.164,70.109a21.058,21.058,0,0,0-2.594-10.594,20.255,20.255,0,0,0-7.676-7.478q-42.37-24.43-84.758-48.827c-7.613-4.395-14.993-4.235-22.55.223-11.243,6.63-67.532,38.88-84.305,48.595C3.374,56.027.012,62.147.011,70.1Q-.006,119.232,0,168.364a21.149,21.149,0,0,0,2.481,10.391,20.189,20.189,0,0,0,7.792,7.682c16.774,9.715,73.071,41.962,84.311,48.594,7.56,4.46,14.94,4.62,22.556.223Q159.5,210.8,201.9,186.428a20.2,20.2,0,0,0,7.792-7.681,21.17,21.17,0,0,0,2.479-10.392s0-65.491-.01-98.246" transform="translate(0 0)" fill="#fff" fill-rule="evenodd"/>
          </g>
          <path id="Fill-7" d="M151.676,164.652c-5.785,10.955-16.779,18.359-29.4,18.359-12.54,0-23.471-7.311-29.287-18.15a37.736,37.736,0,0,1-4.449-17.871c0-19.894,15.1-36.02,33.735-36.02,12.459,0,23.333,7.22,29.177,17.948l29.486-18.13c-11.72-21.6-33.6-36.135-58.663-36.135-37.417,0-67.748,32.387-67.748,72.337a75.8,75.8,0,0,0,8.972,36c11.69,21.716,33.634,36.339,58.775,36.339,25.187,0,47.165-14.681,58.839-36.462l-29.443-18.214" transform="translate(-16.662 -27.757)" fill="#134172" fill-rule="evenodd"/>
          <path id="Fill-8" d="M257.82,189.456h6.7V157h-6.7Z" transform="translate(-89.158 -53.776)" fill="#134172" fill-rule="evenodd"/>
          <path id="Fill-9" d="M281.487,189.456h6.7V157h-6.7Z" transform="translate(-96.494 -53.776)" fill="#134172" fill-rule="evenodd"/>
          <path id="Fill-10" d="M249.153,172.367h32.456v-6.7H249.153Z" transform="translate(-84.472 -57.306)" fill="#134172" fill-rule="evenodd"/>
          <path id="Fill-11" d="M249.153,196.034h32.456v-6.7H249.153Z" transform="translate(-84.472 -65.492)" fill="#134172" fill-rule="evenodd"/>
        </g>
      </g>
      <g id="Typescript" transform="translate(459.458 1350.457)">
        <g id="Typescript-2" data-name="Typescript" transform="translate(0 0)">
          <path id="Path_345" data-name="Path 345" d="M0-510.767v119.233H238.466V-630H0Zm192.174-9.5a29.683,29.683,0,0,1,14.914,8.592c2.2,2.347,5.451,6.624,5.716,7.646.076.3-10.3,7.268-16.579,11.166-.227.151-1.136-.833-2.158-2.347-3.066-4.467-6.283-6.4-11.2-6.738-7.23-.492-11.885,3.293-11.848,9.614a8.744,8.744,0,0,0,1.022,4.467c1.59,3.293,4.542,5.262,13.816,9.274,17.071,7.343,24.377,12.188,28.919,19.077,5.072,7.684,6.208,19.948,2.763,29.07-3.785,9.917-13.172,16.655-26.383,18.888a73.1,73.1,0,0,1-18.169-.189c-9.576-1.7-18.661-6.435-24.263-12.642-2.2-2.423-6.473-8.744-6.208-9.2a17.81,17.81,0,0,1,2.2-1.4c1.06-.606,5.072-2.915,8.857-5.11l6.851-3.974,1.438,2.12c2.006,3.066,6.4,7.267,9.047,8.668,7.608,4.012,18.055,3.445,23.2-1.173a8.778,8.778,0,0,0,3.1-7.154,8.736,8.736,0,0,0-1.779-6.056c-1.855-2.649-5.64-4.883-16.39-9.539-12.3-5.3-17.6-8.592-22.446-13.816a31.445,31.445,0,0,1-6.548-11.923,47.746,47.746,0,0,1-.416-15.216c2.536-11.885,11.507-20.175,24.452-22.635C178.282-521.593,188.048-521.29,192.174-520.268Zm-55.983,9.955.076,9.766H105.228v88.195H83.274v-88.195H52.235v-9.576a93.838,93.838,0,0,1,.265-9.842c.114-.151,19-.227,41.9-.189l41.675.114Z" transform="translate(0 630)" fill="#fff"/>
        </g>
      </g>
      <g id="React" transform="translate(444.803 1764.379)">
        <g id="REact-2" data-name="REact" transform="translate(0 0)">
          <path id="Path_342" data-name="Path 342" d="M443.477,197.26c0-17.739-22.215-34.55-56.273-44.975,7.86-34.714,4.366-62.332-11.026-71.174a23.93,23.93,0,0,0-12.226-3.057V90.226a12.639,12.639,0,0,1,6.222,1.419c7.423,4.257,10.643,20.468,8.133,41.318-.6,5.131-1.583,10.534-2.784,16.047a264.522,264.522,0,0,0-34.659-5.949,266.249,266.249,0,0,0-22.706-27.291c17.794-16.538,34.5-25.6,45.848-25.6V78h0c-15.01,0-34.659,10.7-54.527,29.256-19.868-18.449-39.517-29.037-54.527-29.037V90.39c11.3,0,28.055,9.006,45.848,25.435a257.792,257.792,0,0,0-22.542,27.236,254.886,254.886,0,0,0-34.714,6c-1.255-5.458-2.183-10.753-2.838-15.829-2.565-20.85.6-37.061,7.969-41.373a12.148,12.148,0,0,1,6.277-1.419V78.273h0a24.337,24.337,0,0,0-12.335,3.057c-15.337,8.842-18.776,36.406-10.862,71.01-33.95,10.48-56.055,27.236-56.055,44.921,0,17.739,22.215,34.55,56.273,44.975-7.86,34.714-4.367,62.332,11.025,71.174a23.994,23.994,0,0,0,12.281,3.057c15.01,0,34.659-10.7,54.527-29.256,19.868,18.448,39.517,29.037,54.527,29.037a24.336,24.336,0,0,0,12.335-3.057c15.337-8.842,18.776-36.406,10.862-71.01C421.371,231.756,443.477,214.945,443.477,197.26Zm-71.065-36.406c-2.02,7.041-4.53,14.3-7.369,21.56-2.238-4.367-4.585-8.733-7.15-13.1-2.511-4.366-5.185-8.624-7.86-12.772C357.784,157.689,365.261,159.108,372.412,160.855Zm-25,58.129c-4.257,7.369-8.624,14.355-13.154,20.85-8.133.71-16.374,1.092-24.671,1.092-8.242,0-16.484-.382-24.562-1.037q-6.8-9.743-13.209-20.741-6.222-10.725-11.353-21.723c3.384-7.314,7.2-14.628,11.3-21.778,4.257-7.368,8.624-14.355,13.154-20.85,8.133-.71,16.374-1.092,24.671-1.092,8.242,0,16.484.382,24.562,1.037q6.8,9.743,13.209,20.741,6.222,10.725,11.353,21.723C355.273,204.52,351.507,211.834,347.413,218.984Zm17.63-7.1c2.947,7.314,5.458,14.628,7.532,21.723-7.15,1.747-14.682,3.22-22.488,4.367,2.674-4.2,5.349-8.515,7.86-12.936C360.458,220.676,362.805,216.255,365.043,211.888ZM309.7,270.127a225.017,225.017,0,0,1-15.174-17.466c4.912.218,9.934.382,15.01.382,5.131,0,10.207-.109,15.174-.382A213.051,213.051,0,0,1,309.7,270.127Zm-40.609-32.149c-7.751-1.146-15.228-2.565-22.378-4.312,2.02-7.041,4.53-14.3,7.369-21.56,2.238,4.367,4.585,8.733,7.15,13.1S266.414,233.83,269.089,237.978Zm40.336-113.584A225.031,225.031,0,0,1,324.6,141.86c-4.912-.218-9.934-.382-15.01-.382-5.131,0-10.207.109-15.174.382A213.042,213.042,0,0,1,309.425,124.394Zm-40.39,32.148c-2.674,4.2-5.349,8.515-7.86,12.936-2.511,4.367-4.858,8.733-7.1,13.1-2.947-7.314-5.458-14.628-7.532-21.723C253.7,159.163,261.229,157.689,269.034,156.543Zm-49.4,68.336c-19.322-8.242-31.821-19.049-31.821-27.618s12.5-19.431,31.821-27.618c4.694-2.02,9.825-3.821,15.119-5.513a262.143,262.143,0,0,0,12.281,33.24,258.444,258.444,0,0,0-12.117,33.076C229.517,228.754,224.387,226.9,219.638,224.879Zm29.365,78c-7.423-4.257-10.643-20.468-8.133-41.318.6-5.131,1.583-10.534,2.784-16.047a264.5,264.5,0,0,0,34.659,5.949,266.236,266.236,0,0,0,22.706,27.291c-17.794,16.538-34.5,25.6-45.848,25.6A13.025,13.025,0,0,1,249,302.876ZM378.47,261.285c2.565,20.85-.6,37.061-7.969,41.373a12.148,12.148,0,0,1-6.277,1.419c-11.3,0-28.055-9.006-45.848-25.435a257.807,257.807,0,0,0,22.542-27.236,254.894,254.894,0,0,0,34.714-6A152.775,152.775,0,0,1,378.47,261.285Zm21.014-36.406c-4.694,2.02-9.825,3.821-15.119,5.513a262.153,262.153,0,0,0-12.281-33.24A258.456,258.456,0,0,0,384.2,164.075c5.4,1.692,10.534,3.548,15.337,5.567,19.322,8.242,31.821,19.049,31.821,27.618C431.305,205.83,418.806,216.691,399.484,224.879Z" transform="translate(-175.7 -78)" fill="#fff"/>
          <path id="Path_343" data-name="Path 343" d="M320.8,78.4Z" transform="translate(-241.602 -78.182)" fill="#fff"/>
          <circle id="Ellipse_27" data-name="Ellipse 27" cx="24.944" cy="24.944" r="24.944" transform="translate(108.89 94.317)" fill="#fff"/>
          <path id="Path_344" data-name="Path 344" d="M520.5,78.1Z" transform="translate(-332.303 -78.045)" fill="#fff"/>
        </g>
      </g>
      <g id="NodeJS" transform="translate(801.914 1749.092)">
        <g id="NodeJS-2" data-name="NodeJS" transform="translate(0 0)">
          <path id="Path_340" data-name="Path 340" d="M99.038,3.129a20,20,0,0,1,19.522,0Q163.143,28.32,207.729,53.5A18.356,18.356,0,0,1,217,69.3v101.04a18.556,18.556,0,0,1-9.963,16.153Q162.6,211.55,118.186,236.622a19.431,19.431,0,0,1-19.738-.549q-13.322-7.723-26.66-15.415c-1.815-1.082-3.861-1.943-5.143-3.7,1.133-1.527,3.159-1.717,4.8-2.384a62.225,62.225,0,0,0,10.518-4.907,2.455,2.455,0,0,1,2.738.164c7.594,4.354,15.122,8.835,22.742,13.148,1.626.939,3.272-.307,4.661-1.082q43.605-24.645,87.241-49.233a2.885,2.885,0,0,0,1.585-2.841q.031-50,.01-100a3.125,3.125,0,0,0-1.862-3.117Q154.8,41.767,110.541,16.8a3.075,3.075,0,0,0-3.477-.005Q62.79,41.747,18.531,66.72a3.088,3.088,0,0,0-1.872,3.1q.008,50,0,100a2.827,2.827,0,0,0,1.605,2.805q11.815,6.7,23.645,13.353c4.44,2.39,9.892,3.81,14.784,1.979a11.215,11.215,0,0,0,7.261-10.537c.041-33.137-.02-66.278.031-99.41A2.5,2.5,0,0,1,66.7,75.468c3.785-.025,7.574-.051,11.359.01a2.621,2.621,0,0,1,2.471,3.03c-.015,33.346.041,66.693-.025,100.04.01,8.887-3.641,18.557-11.861,22.906C58.518,206.7,46,205.588,36,200.557c-8.661-4.323-16.927-9.425-25.434-14.056A18.512,18.512,0,0,1,.6,170.345V69.3a18.39,18.39,0,0,1,9.589-16.009Q54.621,28.222,99.038,3.129Z" transform="translate(-0.603 -0.584)" fill="#fff"/>
          <path id="Path_341" data-name="Path 341" d="M140.576,85.932c12.918-.831,26.747-.493,38.372,5.871,9,4.877,13.99,15.112,14.149,25.111a2.718,2.718,0,0,1-2.949,2c-3.748-.005-7.5.051-11.245-.025-1.59.061-2.514-1.4-2.714-2.81-1.077-4.784-3.686-9.522-8.189-11.83-6.912-3.461-14.927-3.287-22.465-3.215-5.5.292-11.42.769-16.082,4-3.579,2.451-4.666,7.4-3.389,11.384,1.2,2.861,4.507,3.785,7.21,4.636,15.568,4.072,32.065,3.666,47.335,9.025,6.322,2.184,12.507,6.431,14.671,13.05,2.831,8.872,1.59,19.476-4.722,26.6-5.119,5.861-12.574,9.051-20.01,10.784-9.892,2.206-20.157,2.262-30.2,1.282-9.446-1.077-19.276-3.559-26.568-9.995-6.236-5.414-9.281-13.85-8.979-21.993a2.519,2.519,0,0,1,2.759-2.221c3.774-.031,7.549-.041,11.323.005a2.645,2.645,0,0,1,2.7,2.616c.7,4.558,2.41,9.342,6.384,12.045,7.671,4.949,17.3,4.61,26.08,4.749,7.277-.323,15.446-.42,21.384-5.23,3.133-2.743,4.061-7.333,3.215-11.281-.917-3.334-4.4-4.887-7.4-5.9-15.368-4.861-32.049-3.1-47.269-8.595-6.179-2.184-12.154-6.312-14.527-12.66-3.312-8.984-1.795-20.1,5.179-26.978,6.8-6.845,16.615-9.482,25.947-10.425Z" transform="translate(-16.302 -13.396)" fill="#fff"/>
        </g>
      </g>
      <text id="Typescript-3" data-name="Typescript" transform="translate(578.567 1671.672)" fill="#fff" font-size="43" font-family="OpenSans, Open Sans"><tspan x="-103.437" y="0">Typescript</tspan></text>
      <text id="Angular-3" data-name="Angular" transform="translate(893.567 1671.672)" fill="#fff" font-size="43" font-family="OpenSans, Open Sans"><tspan x="-77.948" y="0">Angular</tspan></text>
      <text id="C_DotNet" data-name="C#/DotNet" transform="translate(1227.567 1671.672)" fill="#fff" font-size="43" font-family="OpenSans, Open Sans"><tspan x="-107.458" y="0">C#/DotNet</tspan></text>
      <text id="Adobe_XD-2" data-name="Adobe XD" transform="translate(1229.567 2092.672)" fill="#fff" font-size="43" font-family="OpenSans, Open Sans"><tspan x="-98.671" y="0">Adobe XD</tspan></text>
      <text id="NodeJS-3" data-name="NodeJS" transform="translate(893.567 2092.672)" fill="#fff" font-size="43" font-family="OpenSans, Open Sans"><tspan x="-71.975" y="0">NodeJS</tspan></text>
      <text id="React-3" data-name="React" transform="translate(578.567 2085.672)" fill="#fff" font-size="43" font-family="OpenSans, Open Sans"><tspan x="-55.136" y="0">React</tspan></text>
    </g>
  </g>
</svg>
