<svg xmlns="http://www.w3.org/2000/svg" width="85" height="69.062" viewBox="0 0 85 69.062">
  <path id="Path_252" data-name="Path 252" d="M33.7-49.141a38.318,38.318,0,0,0,8.8-9.131,37.446,37.446,0,0,1-9.961,2.822,17.3,17.3,0,0,0,7.637-9.629,35.466,35.466,0,0,1-11.123,4.15,19.716,19.716,0,0,0-5.728-3.984,16.631,16.631,0,0,0-7.056-1.494,16.837,16.837,0,0,0-8.633,2.324A17.06,17.06,0,0,0,1.328-57.69,17.283,17.283,0,0,0-1-48.974,24.2,24.2,0,0,0-.664-44.99a48.254,48.254,0,0,1-20-5.312A48.068,48.068,0,0,1-36.523-63.252a16.688,16.688,0,0,0-2.49,8.716,16.745,16.745,0,0,0,2.158,8.384,19.339,19.339,0,0,0,5.645,6.309,16.411,16.411,0,0,1-7.8-2.324v.332a16.713,16.713,0,0,0,3.984,10.957,17.564,17.564,0,0,0,9.961,6.143,22.128,22.128,0,0,1-4.648.5q-1.494,0-3.154-.166a17.337,17.337,0,0,0,6.06,8.55,16.216,16.216,0,0,0,10.21,3.4A34.56,34.56,0,0,1-38.35-4.98q-2.324,0-4.15-.166a48.367,48.367,0,0,0,26.728,7.8,47.9,47.9,0,0,0,27.06-7.8,47.411,47.411,0,0,0,16.768-18.76,49.226,49.226,0,0,0,5.811-23.076A9.89,9.89,0,0,0,33.7-49.141Z" transform="translate(42.5 66.406)" fill="#ed1067"/>
</svg>
